<svg enable-background="new 0 0 79.536 79.536" height="79.536" viewBox="0 0 79.536 79.536" width="79.536" xmlns="http://www.w3.org/2000/svg"><path d="m40.162 17.906c-2.747-2.631-18.548-11.765-40.162-2.455v6.654 44.418h32.747c1.126.968 3.798 1.651 6.926 1.651 3.119 0 5.802-.684 6.931-1.651h32.933v-44.418c0-3.933 0-6.517 0-6.654-20.724-9.137-37.28.531-39.375 2.455zm-2.933 45.443c0-1.75-15.372-11.981-33.125-.818v-43.315c3.516-2.014 8.246-3.249 13.463-3.249 10.864 0 19.662 3.562 19.662 10.175zm38.455-.819c-17.751-11.163-33.108-.932-33.108.818v-37.202c0-6.612 8.792-10.175 19.646-10.175 5.22 0 9.952 1.235 13.463 3.249v43.31z" fill="#ff5e1a"/></svg>